<?xml version="1.0" encoding="UTF-8"?><svg id="Layer_2_Image" xmlns="http://www.w3.org/2000/svg" viewBox="0 0 599.5 245.5"><path d="m599.18,211.16v3c-2.06,3.03-4.91,4.11-8.56,4.09-18.98-.11-37.96.02-56.94-.12-35.94-.25-71.88-.63-107.82-.96-1.83-.02-3.69.07-5.47-.25-2.96-.52-4.97-2.59-5.04-4.78-.08-2.69,2.11-5.41,5.26-5.73,3.46-.36,6.98-.27,10.47-.15,5.26.17,10.52.77,15.78.79,23.65.12,47.3-.18,70.93.24,10.94.19,21.87-.07,32.8-.05,13.62.03,27.24.62,40.87.85,3.06.05,5.4,1.41,7.72,3.07Z"/><path d="m402.13,212.04c.08,2.22-2.57,4.76-4.92,4.72-2.06-.03-4.33-2.18-4.33-4.1,0-1.93,2.91-5.14,4.73-5.23,1.83-.09,4.45,2.57,4.52,4.61Z"/><path d="m358.55,216.56c2.42.94,2.85,2.63,1.22,4.6-2.72,3.28-6.37,4.72-10.5,4.94-2.98.17-5.97.04-8.96.04v-.02c-6.11,0-12.23.12-18.33-.08-1.92-.06-3.95-.73-5.65-1.64-1.74-.92-3.35-2.42-2.63-4.82.66-2.16,1.88-3.93,4.32-4.33.97-.16,1.98-.13,2.98-.1,11.54.3,23.08.6,34.63.94.98.03,2.02.12,2.92.47Z"/><path d="m381.47,198.89c2.57.84,3.02,2.33,1.56,4.59-2.1,3.25-5.21,5.07-9.01,5.59-1.47.2-2.98.03-4.48.03v-.52c-16.08-.13-32.17-.26-48.25-.41-.99-.01-2.06.04-2.96-.3-2.32-.89-3.93-2.51-3.96-5.17-.03-2.51,1.37-4.31,3.72-4.59,3.87-.47,7.81-.51,11.72-.55,2.31-.02,4.61.46,6.92.48,13.12.08,26.24.07,39.36.15,1.8.02,3.69.14,5.38.7Z"/><path d="m514.21,168.54c6.66,4.12,6.76,10.57-.49,13.67-6.64,2.84-13.87,4.77-21.04,5.81-11.14,1.6-22.43,2.16-33.67,3.05-2.82.22-5.66.03-8.49.03v-.57c-27.46-.12-54.91-.18-82.37-.39-7.93-.06-15.85-.74-23.78-.79-5.93-.05-11.87.6-17.8.64-2.96.02-5.96-.48-8.89-1.02-2.52-.47-3.39-2.41-3.37-4.84s.95-4.28,3.44-4.84c1.77-.4,3.62-.66,5.44-.65,25.64.15,51.31-.37,76.91.77,23.14,1.03,46.26.6,69.37.52,10.24-.03,20.48-1.96,30.71-3.05.65-.07,1.31-.3,1.9-.59.35-.17.57-.6.84-.91-.24-.2-.46-.52-.74-.6-2.39-.73-4.75-1.68-7.19-2.06-12.3-1.94-24.59-3.93-36.94-5.49-10.53-1.32-21.13-2.04-31.69-3.1-4.22-.42-6.01-1.76-5.85-4.07.28-3.89,3.52-7.04,7.2-6.8,3.31.22,6.61.61,9.91.98,18.97,2.16,38.02,3.8,56.7,7.93,5.67,1.25,11.2,3.15,16.78,4.83,1.09.33,2.12.94,3.11,1.54Z"/><path d="m373.19,161.49c2.35.61,4.12,3.08,3.97,5.14-.19,2.61-1.99,4.48-4.94,4.57-4.81.16-9.63.04-14.45.04,0-.09-.01-.19-.02-.29-6.11.38-12.22.86-18.34,1.06-1.94.07-3.93-.5-5.86-.97-2.39-.58-4.41-1.67-4.24-4.65.13-2.32,2.22-4.62,4.75-5.09.97-.18,1.98-.11,2.98-.12,10.73,0,21.46-.01,32.2.01,1.32,0,2.69-.02,3.95.3Z"/><path d="m413.22,145.46c3.38.8,3.94,2,2.48,5.18-.48,1.06-.93,2.14-1.52,3.14-2.36,4-2.37,3.96-7.09,2.95-1.29-.28-2.63-.43-3.95-.46-19.79-.36-39.58-.7-59.36-1.04-1.5-.02-3,.02-4.5-.01-.83-.01-1.68,0-2.48-.18-2.57-.6-5.3-3.62-5.04-5.47.39-2.71,3.49-4.99,6.63-4.82,1,.05,1.98.22,4.02.46,22.08,0,45.21,0,68.33.01.83,0,1.68.05,2.48.24Z"/><path d="m254.04,164.36c.1,2.33-2.44,4.54-6.05,4.77-3.81.24-7.63.09-11.45.1h-5.98v-.03c-4.98,0-9.98.23-14.94-.1-2.54-.16-5.23-.94-7.5-2.12-3.27-1.7-3.5-3.82-.78-6.22,1.38-1.22,3.39-2.4,5.13-2.43,11.59-.21,23.19-.11,34.78-.11.17,0,.33,0,.5.02,3.07.37,6.18,3.39,6.29,6.12Z"/><path d="m251.57,144.1c.87,1.43,1.48,3.33,1.37,4.96-.15,2-1.94,2.98-3.95,3.13-1.33.09-2.66.09-3.99.09-15.29.02-30.59-.18-45.88.11-10.74.21-21.46,1.02-32.18,1.69-2.53.16-3.99-.71-5.17-2.9-3.93-7.29-3.03-8.96,5.13-8.96,12.8-.02,25.6-.01,38.4-.01v-.01c13.47,0,26.93.01,40.4,0,2.19,0,4.59-.18,5.87,1.9Z"/><path d="m448.23,124.26c2.83.55,5.1,3.43,4.72,5.6-.48,2.73-2.74,3.63-5.06,4.16-1.27.29-2.65.22-3.97.22-21.49,0-42.97.07-64.45-.07-8.46-.05-16.91-.64-25.36-.81-4.79-.09-9.59.23-14.39.27-1.96.01-3.96-.03-5.88-.38-3.88-.69-6-4.74-4.35-8.31.35-.74,1.39-1.46,2.22-1.63,1.44-.3,2.98-.2,4.48-.2,20.98.03,41.96.07,62.95.1.66,0,1.33.01,2,0,6.14-.03,7.09-.92,5.71-7.06-1.64-7.29-3.35-14.62-5.84-21.64-3.97-11.18-9.83-21.46-16.93-30.98-14.47-19.42-32.92-33.64-55.71-42-12.08-4.43-24.52-6.83-37.49-7.37-20.68-.86-39.96,3.91-57.98,13.5-15.54,8.28-28.69,19.62-39.65,33.6-12.55,15.99-19.62,34.18-23.36,53.89-.84,4.39-.49,4.91,4.09,4.95,11.49.09,22.98-.03,34.47.14,14.08.22,28.16.61,42.23,1,4.16.11,4.39.54,3.56,4.83-1.01,5.18-1.01,5.23-6.22,5.22-18.32-.01-36.64,0-54.95-.11-4.45-.03-8.89-.65-13.33-.69-4.8-.05-9.6.43-14.4.38-12.62-.12-25.24-.4-37.86-.63-1-.01-2.01.04-2.99-.09-3.54-.45-5.16-2.02-5.19-4.91-.04-2.92,2.02-5.4,5.03-5.92.98-.17,2-.16,2.99-.12,7.47.28,14.94.49,22.4.92,5.82.34,6.66-.07,7.36-6.4.93-8.5,3.36-16.57,6.02-24.64,4.91-14.88,12.54-28.19,22.31-40.37,10.13-12.63,22.9-22.11,36.44-30.66,12.24-7.72,25.62-12.64,39.82-15.3,4.06-.76,8.23-.96,12.35-1.5,1.44-.19,2.85-.62,4.27-.95h16c3.23.61,6.43,1.38,9.69,1.81,23.59,3.09,44.94,11.6,63.98,25.94,15.7,11.83,27.72,26.73,37.11,43.83,7.52,13.67,12.69,28.19,14.77,43.72.25,1.81.32,3.64.5,5.46.2,1.94,1.09,2.97,3.26,2.84,5.08-.29,10.17-.59,15.25-.58,3.13,0,6.3.34,9.38.94Z"/><path d="m308.05,85.36c.34,7.37-8.29,16.17-15.31,15.73-10.08-.64-16.09-6.74-16.49-15.84-.02-8.93,7.22-16.19,16.19-15.98,8.61.2,15.16,6.24,15.61,16.09Z"/><path d="m325.32,151.42c0,4.67.07,9.33-.03,13.99-.09,4.43-2.43,6.87-6.23,6.75-3.58-.11-5.68-2.42-5.77-6.69-.11-5.66.23-11.34-.15-16.98-.18-2.69-1.52-5.31-2.42-7.93-.12-.33-.78-.48-1.2-.7-.13.42-.39.83-.4,1.26-.29,18.61-.5,37.23-.84,55.84-.24,12.9-.66,25.79-.95,38.68-.07,3.04-1.13,5.55-3.54,7.37-1.16.88-2.43,1.29-3.62,1.29-2.48,0-4.65-1.76-4.86-4.76-.51-7.23-.59-14.49-.72-21.73-.18-10.1-.22-20.21-.35-30.31-.02-1.56-.21-3.2-2.33-3.08-1.85.11-2.47,1.52-2.51,3.16-.15,6.13-.25,12.25-.38,18.37-.06,2.96-.13,5.92-.2,8.88-.14,6.15-.28,12.3-.43,18.45-.04,1.66.15,3.38-.21,4.98-.51,2.31-.39,5.27-3.75,5.72-.13.02-.27.03-.41.03-2.2,0-5.38-2.16-6.29-4.51-.59-1.52-.9-3.21-1.04-4.85-.25-2.97-.32-5.97-.41-8.96-.33-12.21-.7-24.42-.94-36.63-.07-4.12.27-8.25.3-12.37.05-6.06-.05-12.12.01-18.18.02-1.81.48-3.62.52-5.43.09-3.66.08-7.33.01-10.99-.01-.93-.37-1.84-.57-2.77-.8.72-1.98,1.29-2.35,2.19-.85,2.12-1.67,4.36-1.86,6.61-.31,3.63.02,7.32-.14,10.98-.1,2.3-.52,4.6-.91,6.89-.44,2.49-1.8,4.36-4.35,4.89-2.35.49-5.76-1.63-6.86-4.09-.4-.89-.8-1.91-.77-2.86.35-10.62-.39-21.45,1.44-31.82,3.72-21.09,24.83-30.06,41.77-24.03,12.8,4.55,19.93,13.8,23.47,26.38.31,1.1.22,2.32.23,3.48.02,4.49.01,8.99.01,13.48h.03Z"/><path d="m268.24,216.07c.99,1.21.86,3.77.46,5.56-.44,1.98-2.43,2.57-4.41,2.53-8.81-.18-17.62-.38-26.43-.58-4.8-.11-9.61,0-14.38-.45-2.55-.24-5.12-1.21-7.49-2.28-1.82-.83-3.44-2.46-2.9-4.75.55-2.31,2.68-2.82,4.75-2.87,3.83-.1,7.67-.06,11.5-.07h7.95v.25c8.45,0,16.9-.16,25.33.11,1.96.06,4.43,1.1,5.62,2.55Z"/><path d="m169.34,206.13c2.73.06,4.13,1.43,3.98,3.9-.15,2.43-2.63,4.62-5.07,4.47-1.84-.11-3.91-2.56-3.8-4.51.12-2.27,2.21-3.92,4.89-3.86Z"/><path d="m263.74,195.23c5.12.44,7.3,3.94,5.28,8.7-.38.89-1.54,1.74-2.51,2.04-1.23.38-2.64.23-3.97.23-12.32,0-24.65.07-36.97-.07-5.97-.07-11.94-.59-17.91-.8-3.47-.13-6.95-.05-10.43-.08-3.63-.04-5.81-2.22-7.27-5.23-1.21-2.48-.29-4.3,2.39-4.74,1.46-.24,2.98-.16,4.48-.16,10.66-.01,21.32,0,31.98,0v.06h31.43c1.17,0,2.34-.05,3.5.05Z"/><path d="m265,177.09c4.1.05,6.38,3.16,4.81,7.65-.33.94-1.41,2.04-2.34,2.27-2.39.6-4.91,1.07-7.37,1.04-12.26-.19-24.52-.57-36.78-.84-15.07-.34-30.14-.75-45.21-.9-17.41-.17-34.85.33-52.25-.24-18.08-.58-36.21-1.6-53.76-6.71-2.71-.79-5.43-1.67-7.97-2.87-6.7-3.17-7.58-9.21-1.64-13.69,2.95-2.23,6.74-3.62,10.36-4.61,11.71-3.22,23.63-5.33,35.8-6.12,13.25-.85,26.48-1.98,39.7-3.23,2.58-.24,3.77.44,4.31,2.77.07.33.21.63.32.95,2.03,5.87,1.55,6.34-4.79,6.7-6.78.39-13.55,1.21-20.32,1.77-5.46.45-10.96.58-16.39,1.23-10.22,1.23-20.41,2.72-30.6,4.13-.82.11-1.64.35-2.4.67-1.28.55-2.51,1.2-3.76,1.81,1.24.42,2.45.99,3.72,1.24,10.27,2.02,20.55,3.92,31.08,4.16,8.3.19,16.58.87,21.65,1.15,28.88.28,54.51.53,80.14.76,5.97.06,11.94-.09,17.91.03,11.92.25,23.85.75,35.78.88Z"/><path d="m152.23,209.01c.13,2.51-2.73,5.57-5.7,6.03-.82.13-1.66.09-2.49.13v-.76c-24.43-.09-48.85-.07-73.28-.28-20.28-.18-40.57-.62-60.86-.98-1.48-.03-3.03-.11-4.41-.58-2.1-.71-4.07-1.93-3.93-4.54.14-2.43,1.84-4,4-4.6,2.21-.62,4.59-.94,6.89-.91,10.14.12,20.27.52,30.41.61,12.28.12,24.57-.07,36.84.07,21.62.23,43.24.62,64.85.94.67.01,1.34.02,2,.12,3.22.52,5.57,2.49,5.68,4.75Z"/></svg>